<?xml version="1.0" standalone="no"?>
<!DOCTYPE svg PUBLIC "-//W3C//DTD SVG 20010904//EN"
 "http://www.w3.org/TR/2001/REC-SVG-20010904/DTD/svg10.dtd">
<svg version="1.0" xmlns="http://www.w3.org/2000/svg"
 width="240.000000pt" height="42.000000pt" viewBox="0 0 240.000000 42.000000"
 preserveAspectRatio="xMidYMid meet">
<metadata>
Created by potrace 1.15, written by Peter Selinger 2001-2017
</metadata>
<g transform="translate(0.000000,42.000000) scale(0.100000,-0.100000)"
fill="#000000" stroke="none">
<path d="M0 211 l0 -209 62 64 61 64 84 0 c45 0 83 -4 83 -9 0 -5 -9 -30 -20
-56 -11 -26 -20 -51 -20 -56 0 -5 38 -9 85 -9 l85 0 0 210 0 210 -210 0 -210
0 0 -209z m280 4 l0 -75 -75 0 -75 0 0 75 0 75 75 0 75 0 0 -75z"/>
<path d="M502 373 c3 -51 23 -68 37 -32 8 23 8 24 15 2 7 -20 11 -21 246 -20
185 0 246 -3 266 -13 21 -12 27 -12 34 -1 6 11 42 14 154 14 l146 -1 0 51 0
50 -47 -7 c-27 -4 -115 -6 -198 -5 -192 1 -204 1 -365 -2 -74 -1 -157 1 -184
5 -36 6 -51 4 -57 -6 -7 -10 -9 -10 -9 0 0 6 -9 12 -21 12 -18 0 -20 -5 -17
-47z"/>
<path d="M2330 413 c-8 -3 -18 -11 -22 -17 -5 -8 -11 -7 -20 2 -19 19 -58 15
-58 -5 -1 -17 -1 -17 -11 0 -5 9 -21 17 -34 17 -14 0 -25 -7 -28 -17 -4 -16
-5 -16 -6 -2 -1 15 -26 17 -248 17 -182 1 -249 -2 -255 -11 -6 -9 -8 -9 -8 0
0 8 -32 11 -106 12 l-105 0 3 -42 c3 -47 30 -60 36 -18 l4 24 12 -24 c10 -20
19 -24 64 -25 29 -1 59 -7 67 -14 9 -7 25 -10 42 -5 53 13 134 15 152 3 15 -9
22 -8 35 4 11 12 30 15 73 13 37 -3 60 0 65 8 6 9 8 9 8 1 0 -8 27 -12 80 -12
69 -1 80 1 80 16 1 16 1 16 11 0 11 -20 59 -24 59 -5 0 9 2 9 9 -1 5 -9 32
-12 89 -11 l82 2 0 48 c0 47 -1 49 -27 48 -16 0 -35 -3 -43 -6z"/>
<path d="M1150 295 c0 -16 -15 -18 -95 -14 -54 2 -109 2 -247 -1 -59 -1 -88
-5 -88 -13 0 -9 -2 -9 -8 -1 -7 12 -78 18 -174 15 -36 -1 -48 -5 -48 -16 0 -8
4 -15 9 -15 5 0 11 -10 13 -22 3 -22 8 -23 101 -25 68 -2 97 1 97 9 0 9 3 9
12 0 16 -16 95 -16 101 1 3 9 9 9 25 0 14 -8 76 -12 196 -11 l176 1 0 31 c0
58 -10 76 -41 76 -19 0 -29 -5 -29 -15z"/>
<path d="M1527 284 c-2 -2 -67 -4 -146 -5 l-143 -2 7 -26 c3 -14 6 -36 6 -48
-1 -30 19 -40 35 -18 12 16 29 18 145 17 106 -1 135 -4 149 -17 17 -15 19 -15
28 0 7 14 24 17 90 17 80 0 81 0 85 26 l4 27 2 -26 c1 -25 2 -26 76 -26 73 -1
75 0 75 23 0 13 5 24 10 24 6 0 10 7 10 15 0 16 -10 17 -200 15 -58 0 -109 -1
-115 -1 -5 0 -33 2 -62 5 -29 2 -54 2 -56 0z"/>
<path d="M500 71 c0 -69 1 -71 25 -71 18 0 25 5 25 20 0 11 7 20 15 20 8 0 15
-9 15 -19 0 -18 8 -19 85 -20 90 -1 105 7 105 58 0 12 7 21 15 21 11 0 15 -11
15 -40 0 -36 3 -40 25 -40 23 0 25 4 25 40 0 33 3 40 20 40 17 0 20 -7 20 -40
0 -37 2 -40 28 -40 15 0 33 5 40 12 9 9 12 9 12 0 0 -7 13 -12 30 -12 l31 0
-3 67 c-3 57 -6 68 -21 71 -11 2 -29 -6 -42 -18 -21 -20 -23 -20 -27 -2 -5 16
-16 19 -91 21 -52 1 -88 -3 -92 -9 -5 -8 -11 -8 -19 -1 -7 6 -43 9 -82 8 -63
-2 -69 -4 -72 -24 -2 -13 -10 -23 -17 -23 -7 0 -15 10 -17 23 -2 14 -11 23
-25 25 -22 3 -23 0 -23 -67z"/>
</g>
</svg>
